<mxfile host="app.diagrams.net" agent="Mozilla/5.0 (Windows NT 10.0; Win64; x64) AppleWebKit/537.36 (KHTML, like Gecko) Chrome/83.0.4103.97 Safari/537.36 Edg/83.0.478.50" version="24.7.17" pages="3">
  <diagram name="Page-1" id="NyPBPi7jBV7elJnVfHKo">
    <mxGraphModel dx="1730" dy="1536" grid="1" gridSize="10" guides="1" tooltips="1" connect="1" arrows="1" fold="1" page="1" pageScale="1" pageWidth="850" pageHeight="1100" math="0" shadow="0">
      <root>
        <mxCell id="0" />
        <mxCell id="1" parent="0" />
        <mxCell id="hsgnQJ-CuvfO5NtaRNJs-2" value="Process0 = class attendance and progressive&amp;nbsp; assignment system&amp;nbsp;&lt;div&gt;External entities = student ,lecturer and administrator&lt;/div&gt;&lt;div&gt;Data flows&lt;/div&gt;" style="text;html=1;align=center;verticalAlign=middle;resizable=0;points=[];autosize=1;strokeColor=none;fillColor=none;" vertex="1" parent="1">
          <mxGeometry x="-370" y="-130" width="380" height="60" as="geometry" />
        </mxCell>
        <mxCell id="hsgnQJ-CuvfO5NtaRNJs-3" value="" style="rounded=0;whiteSpace=wrap;html=1;" vertex="1" parent="1">
          <mxGeometry x="-20" y="60" width="230" height="60" as="geometry" />
        </mxCell>
        <mxCell id="hsgnQJ-CuvfO5NtaRNJs-4" value="student" style="html=1;dashed=0;whiteSpace=wrap;shape=mxgraph.dfd.externalEntity" vertex="1" parent="1">
          <mxGeometry x="-290" y="50" width="100" height="128" as="geometry" />
        </mxCell>
        <mxCell id="hsgnQJ-CuvfO5NtaRNJs-5" value="Id" style="autosize=1;part=1;resizable=0;strokeColor=inherit;fillColor=inherit;gradientColor=inherit;" vertex="1" parent="hsgnQJ-CuvfO5NtaRNJs-4">
          <mxGeometry width="20" height="20" relative="1" as="geometry">
            <mxPoint x="15" y="15" as="offset" />
          </mxGeometry>
        </mxCell>
        <mxCell id="hsgnQJ-CuvfO5NtaRNJs-16" value="" style="endArrow=classic;html=1;rounded=0;exitX=0;exitY=0.4;exitDx=0;exitDy=0;exitPerimeter=0;" edge="1" parent="hsgnQJ-CuvfO5NtaRNJs-4" source="hsgnQJ-CuvfO5NtaRNJs-11">
          <mxGeometry width="50" height="50" relative="1" as="geometry">
            <mxPoint x="95" y="204.8" as="sourcePoint" />
            <mxPoint x="90" y="128" as="targetPoint" />
          </mxGeometry>
        </mxCell>
        <mxCell id="hsgnQJ-CuvfO5NtaRNJs-6" value="Administrator" style="html=1;dashed=0;whiteSpace=wrap;shape=mxgraph.dfd.externalEntity" vertex="1" parent="1">
          <mxGeometry x="250" y="640" width="100" height="100" as="geometry" />
        </mxCell>
        <mxCell id="hsgnQJ-CuvfO5NtaRNJs-7" value="Id" style="autosize=1;part=1;resizable=0;strokeColor=inherit;fillColor=inherit;gradientColor=inherit;" vertex="1" parent="hsgnQJ-CuvfO5NtaRNJs-6">
          <mxGeometry width="20" height="20" relative="1" as="geometry">
            <mxPoint x="15" y="15" as="offset" />
          </mxGeometry>
        </mxCell>
        <mxCell id="hsgnQJ-CuvfO5NtaRNJs-8" value="Lecturer" style="html=1;dashed=0;whiteSpace=wrap;shape=mxgraph.dfd.externalEntity" vertex="1" parent="1">
          <mxGeometry x="360" y="180" width="100" height="100" as="geometry" />
        </mxCell>
        <mxCell id="hsgnQJ-CuvfO5NtaRNJs-9" value="Id" style="autosize=1;part=1;resizable=0;strokeColor=inherit;fillColor=inherit;gradientColor=inherit;" vertex="1" parent="hsgnQJ-CuvfO5NtaRNJs-8">
          <mxGeometry width="20" height="20" relative="1" as="geometry">
            <mxPoint x="15" y="15" as="offset" />
          </mxGeometry>
        </mxCell>
        <mxCell id="hsgnQJ-CuvfO5NtaRNJs-11" value="Text&lt;div&gt;&lt;br&gt;&lt;/div&gt;&lt;div&gt;&lt;br&gt;&lt;/div&gt;&lt;div&gt;o&lt;/div&gt;&lt;div&gt;class attendance system&lt;/div&gt;" style="ellipse;whiteSpace=wrap;html=1;aspect=fixed;" vertex="1" parent="1">
          <mxGeometry x="20" y="273" width="210" height="210" as="geometry" />
        </mxCell>
        <mxCell id="hsgnQJ-CuvfO5NtaRNJs-12" value="" style="endArrow=classic;html=1;rounded=0;exitX=0;exitY=0;exitDx=100;exitDy=32.5;exitPerimeter=0;entryX=0.392;entryY=0.008;entryDx=0;entryDy=0;entryPerimeter=0;" edge="1" parent="1" source="hsgnQJ-CuvfO5NtaRNJs-4" target="hsgnQJ-CuvfO5NtaRNJs-11">
          <mxGeometry width="50" height="50" relative="1" as="geometry">
            <mxPoint x="60" y="290" as="sourcePoint" />
            <mxPoint x="110" y="240" as="targetPoint" />
          </mxGeometry>
        </mxCell>
        <mxCell id="hsgnQJ-CuvfO5NtaRNJs-18" value="record attendance" style="text;html=1;align=center;verticalAlign=middle;resizable=0;points=[];autosize=1;strokeColor=none;fillColor=none;" vertex="1" parent="1">
          <mxGeometry x="-200" y="88" width="120" height="30" as="geometry" />
        </mxCell>
        <mxCell id="hsgnQJ-CuvfO5NtaRNJs-19" value="login" style="text;html=1;align=center;verticalAlign=middle;resizable=0;points=[];autosize=1;strokeColor=none;fillColor=none;" vertex="1" parent="1">
          <mxGeometry x="-155" y="108" width="50" height="30" as="geometry" />
        </mxCell>
        <mxCell id="hsgnQJ-CuvfO5NtaRNJs-20" value="" style="endArrow=classic;html=1;rounded=0;exitX=1.03;exitY=0.67;exitDx=0;exitDy=0;exitPerimeter=0;" edge="1" parent="1" source="hsgnQJ-CuvfO5NtaRNJs-21" target="hsgnQJ-CuvfO5NtaRNJs-11">
          <mxGeometry width="50" height="50" relative="1" as="geometry">
            <mxPoint x="-170" y="300" as="sourcePoint" />
            <mxPoint x="-50" y="230" as="targetPoint" />
          </mxGeometry>
        </mxCell>
        <mxCell id="hsgnQJ-CuvfO5NtaRNJs-22" value="" style="endArrow=classic;html=1;rounded=0;exitX=-0.04;exitY=0.39;exitDx=0;exitDy=0;exitPerimeter=0;" edge="1" parent="1" source="hsgnQJ-CuvfO5NtaRNJs-8" target="hsgnQJ-CuvfO5NtaRNJs-11">
          <mxGeometry width="50" height="50" relative="1" as="geometry">
            <mxPoint x="60" y="290" as="sourcePoint" />
            <mxPoint x="230" y="180" as="targetPoint" />
          </mxGeometry>
        </mxCell>
        <mxCell id="hsgnQJ-CuvfO5NtaRNJs-23" value="&amp;nbsp;login details" style="text;html=1;align=center;verticalAlign=middle;resizable=0;points=[];autosize=1;strokeColor=none;fillColor=none;" vertex="1" parent="1">
          <mxGeometry x="225" y="218" width="90" height="30" as="geometry" />
        </mxCell>
        <mxCell id="hsgnQJ-CuvfO5NtaRNJs-24" value="" style="endArrow=classic;html=1;rounded=0;exitX=0;exitY=0;exitDx=0;exitDy=90;exitPerimeter=0;entryX=1.01;entryY=0.614;entryDx=0;entryDy=0;entryPerimeter=0;" edge="1" parent="1" source="hsgnQJ-CuvfO5NtaRNJs-8" target="hsgnQJ-CuvfO5NtaRNJs-11">
          <mxGeometry width="50" height="50" relative="1" as="geometry">
            <mxPoint x="60" y="290" as="sourcePoint" />
            <mxPoint x="110" y="240" as="targetPoint" />
          </mxGeometry>
        </mxCell>
        <mxCell id="hsgnQJ-CuvfO5NtaRNJs-26" value="Attendances&amp;nbsp;&lt;div&gt;lists&lt;/div&gt;" style="text;html=1;align=center;verticalAlign=middle;resizable=0;points=[];autosize=1;strokeColor=none;fillColor=none;" vertex="1" parent="1">
          <mxGeometry x="215" y="273" width="90" height="40" as="geometry" />
        </mxCell>
        <mxCell id="hsgnQJ-CuvfO5NtaRNJs-28" value="" style="endArrow=classic;html=1;rounded=0;exitX=0.814;exitY=0.11;exitDx=0;exitDy=0;exitPerimeter=0;entryX=0;entryY=0;entryDx=0;entryDy=0;entryPerimeter=0;" edge="1" parent="1" source="hsgnQJ-CuvfO5NtaRNJs-11" target="hsgnQJ-CuvfO5NtaRNJs-8">
          <mxGeometry width="50" height="50" relative="1" as="geometry">
            <mxPoint x="60" y="290" as="sourcePoint" />
            <mxPoint x="220" y="180" as="targetPoint" />
          </mxGeometry>
        </mxCell>
        <mxCell id="hsgnQJ-CuvfO5NtaRNJs-30" value="Assignments" style="text;html=1;align=center;verticalAlign=middle;resizable=0;points=[];autosize=1;strokeColor=none;fillColor=none;" vertex="1" parent="1">
          <mxGeometry x="280" y="160" width="90" height="30" as="geometry" />
        </mxCell>
        <mxCell id="hsgnQJ-CuvfO5NtaRNJs-31" value="" style="endArrow=classic;html=1;rounded=0;exitX=0;exitY=0;exitDx=67.5;exitDy=0;exitPerimeter=0;" edge="1" parent="1" source="hsgnQJ-CuvfO5NtaRNJs-6" target="hsgnQJ-CuvfO5NtaRNJs-11">
          <mxGeometry width="50" height="50" relative="1" as="geometry">
            <mxPoint x="150" y="550" as="sourcePoint" />
            <mxPoint x="200" y="500" as="targetPoint" />
          </mxGeometry>
        </mxCell>
        <mxCell id="hsgnQJ-CuvfO5NtaRNJs-32" value="login" style="text;html=1;align=center;verticalAlign=middle;resizable=0;points=[];autosize=1;strokeColor=none;fillColor=none;" vertex="1" parent="1">
          <mxGeometry x="235" y="520" width="50" height="30" as="geometry" />
        </mxCell>
        <mxCell id="hsgnQJ-CuvfO5NtaRNJs-33" value="" style="endArrow=classic;html=1;rounded=0;exitX=0.31;exitY=0.03;exitDx=0;exitDy=0;exitPerimeter=0;entryX=0.595;entryY=0.976;entryDx=0;entryDy=0;entryPerimeter=0;" edge="1" parent="1" source="hsgnQJ-CuvfO5NtaRNJs-6" target="hsgnQJ-CuvfO5NtaRNJs-11">
          <mxGeometry width="50" height="50" relative="1" as="geometry">
            <mxPoint x="60" y="520" as="sourcePoint" />
            <mxPoint x="110" y="470" as="targetPoint" />
          </mxGeometry>
        </mxCell>
        <mxCell id="hsgnQJ-CuvfO5NtaRNJs-34" value="" style="endArrow=classic;html=1;rounded=0;exitX=0.943;exitY=0.781;exitDx=0;exitDy=0;exitPerimeter=0;" edge="1" parent="1" source="hsgnQJ-CuvfO5NtaRNJs-11">
          <mxGeometry width="50" height="50" relative="1" as="geometry">
            <mxPoint x="60" y="520" as="sourcePoint" />
            <mxPoint x="340" y="640" as="targetPoint" />
          </mxGeometry>
        </mxCell>
        <mxCell id="hsgnQJ-CuvfO5NtaRNJs-35" style="edgeStyle=orthogonalEdgeStyle;rounded=0;orthogonalLoop=1;jettySize=auto;html=1;entryX=0.37;entryY=0.04;entryDx=0;entryDy=0;entryPerimeter=0;" edge="1" parent="1" target="hsgnQJ-CuvfO5NtaRNJs-6">
          <mxGeometry relative="1" as="geometry">
            <mxPoint x="310" y="640" as="sourcePoint" />
          </mxGeometry>
        </mxCell>
        <mxCell id="hsgnQJ-CuvfO5NtaRNJs-37" value="Account&lt;div&gt;details&lt;/div&gt;" style="text;html=1;align=center;verticalAlign=middle;resizable=0;points=[];autosize=1;strokeColor=none;fillColor=none;" vertex="1" parent="1">
          <mxGeometry x="300" y="583" width="70" height="40" as="geometry" />
        </mxCell>
        <mxCell id="MgrjiCKsgveX6wa7gIf1-1" value="sudent" style="html=1;dashed=0;whiteSpace=wrap;shape=mxgraph.dfd.externalEntity" vertex="1" parent="1">
          <mxGeometry x="-300" y="410" width="100" height="100" as="geometry" />
        </mxCell>
        <mxCell id="MgrjiCKsgveX6wa7gIf1-2" value="Id" style="autosize=1;part=1;resizable=0;strokeColor=inherit;fillColor=inherit;gradientColor=inherit;" vertex="1" parent="MgrjiCKsgveX6wa7gIf1-1">
          <mxGeometry width="20" height="20" relative="1" as="geometry">
            <mxPoint x="15" y="15" as="offset" />
          </mxGeometry>
        </mxCell>
        <mxCell id="yEV5N0plPTTSEa3kJDjI-1" value="" style="endArrow=classic;html=1;rounded=0;exitX=1.03;exitY=0.67;exitDx=0;exitDy=0;exitPerimeter=0;" edge="1" parent="1" source="hsgnQJ-CuvfO5NtaRNJs-4" target="hsgnQJ-CuvfO5NtaRNJs-21">
          <mxGeometry width="50" height="50" relative="1" as="geometry">
            <mxPoint x="-187" y="136" as="sourcePoint" />
            <mxPoint x="42" y="314" as="targetPoint" />
          </mxGeometry>
        </mxCell>
        <mxCell id="hsgnQJ-CuvfO5NtaRNJs-21" value="submit&amp;nbsp;&lt;div&gt;assiment&lt;/div&gt;" style="text;html=1;align=center;verticalAlign=middle;resizable=0;points=[];autosize=1;strokeColor=none;fillColor=none;" vertex="1" parent="1">
          <mxGeometry x="-155" y="170" width="70" height="40" as="geometry" />
        </mxCell>
      </root>
    </mxGraphModel>
  </diagram>
  <diagram id="7NQcD8moHIsR8QJrheCI" name="Page-2">
    <mxGraphModel dx="1730" dy="436" grid="1" gridSize="10" guides="1" tooltips="1" connect="1" arrows="1" fold="1" page="1" pageScale="1" pageWidth="850" pageHeight="1100" math="0" shadow="0">
      <root>
        <mxCell id="0" />
        <mxCell id="1" parent="0" />
        <mxCell id="iKQlAgD89Vu_cNlFwOyA-1" value="1&lt;div&gt;login&lt;/div&gt;" style="ellipse;whiteSpace=wrap;html=1;aspect=fixed;" vertex="1" parent="1">
          <mxGeometry x="80" y="10" width="80" height="80" as="geometry" />
        </mxCell>
        <mxCell id="iKQlAgD89Vu_cNlFwOyA-2" value="&amp;nbsp;2&amp;nbsp;&lt;div&gt;student&amp;nbsp;&lt;/div&gt;&lt;div&gt;assignments&lt;/div&gt;" style="ellipse;whiteSpace=wrap;html=1;aspect=fixed;" vertex="1" parent="1">
          <mxGeometry x="160" y="90" width="80" height="80" as="geometry" />
        </mxCell>
        <mxCell id="iKQlAgD89Vu_cNlFwOyA-3" value="student" style="html=1;dashed=0;whiteSpace=wrap;shape=mxgraph.dfd.externalEntity" vertex="1" parent="1">
          <mxGeometry x="-40" y="160" width="100" height="100" as="geometry" />
        </mxCell>
        <mxCell id="iKQlAgD89Vu_cNlFwOyA-4" value="Id" style="autosize=1;part=1;resizable=0;strokeColor=inherit;fillColor=inherit;gradientColor=inherit;" vertex="1" parent="iKQlAgD89Vu_cNlFwOyA-3">
          <mxGeometry width="20" height="20" relative="1" as="geometry">
            <mxPoint x="15" y="15" as="offset" />
          </mxGeometry>
        </mxCell>
        <mxCell id="iKQlAgD89Vu_cNlFwOyA-7" value="Lecturer" style="html=1;dashed=0;whiteSpace=wrap;shape=mxgraph.dfd.externalEntity" vertex="1" parent="1">
          <mxGeometry x="550" y="140" width="100" height="100" as="geometry" />
        </mxCell>
        <mxCell id="iKQlAgD89Vu_cNlFwOyA-8" value="Id" style="autosize=1;part=1;resizable=0;strokeColor=inherit;fillColor=inherit;gradientColor=inherit;" vertex="1" parent="iKQlAgD89Vu_cNlFwOyA-7">
          <mxGeometry width="20" height="20" relative="1" as="geometry">
            <mxPoint x="15" y="15" as="offset" />
          </mxGeometry>
        </mxCell>
        <mxCell id="iKQlAgD89Vu_cNlFwOyA-11" value="3&lt;div&gt;record&amp;nbsp; attendance&lt;/div&gt;" style="ellipse;whiteSpace=wrap;html=1;" vertex="1" parent="1">
          <mxGeometry x="80" y="370" width="120" height="50" as="geometry" />
        </mxCell>
        <mxCell id="iKQlAgD89Vu_cNlFwOyA-13" value="7&amp;nbsp;&lt;div&gt;view attendance&lt;/div&gt;" style="ellipse;whiteSpace=wrap;html=1;" vertex="1" parent="1">
          <mxGeometry x="210" y="310" width="120" height="90" as="geometry" />
        </mxCell>
        <mxCell id="iKQlAgD89Vu_cNlFwOyA-14" value="5&lt;div&gt;verify attendance&lt;/div&gt;" style="ellipse;whiteSpace=wrap;html=1;" vertex="1" parent="1">
          <mxGeometry x="305" y="440" width="120" height="80" as="geometry" />
        </mxCell>
        <mxCell id="iKQlAgD89Vu_cNlFwOyA-15" value="&lt;div&gt;&lt;br&gt;&lt;/div&gt;9&lt;div&gt;manage accounts for students&lt;/div&gt;" style="ellipse;whiteSpace=wrap;html=1;" vertex="1" parent="1">
          <mxGeometry x="90" y="530" width="120" height="80" as="geometry" />
        </mxCell>
        <mxCell id="fj5h48gHWvAqLRqw-NB5-1" value="" style="endArrow=classic;html=1;rounded=0;exitX=0;exitY=0;exitDx=100;exitDy=32.5;exitPerimeter=0;entryX=0.5;entryY=1;entryDx=0;entryDy=0;" edge="1" parent="1" source="iKQlAgD89Vu_cNlFwOyA-3" target="iKQlAgD89Vu_cNlFwOyA-1">
          <mxGeometry width="50" height="50" relative="1" as="geometry">
            <mxPoint x="400" y="180" as="sourcePoint" />
            <mxPoint x="450" y="130" as="targetPoint" />
          </mxGeometry>
        </mxCell>
        <mxCell id="fj5h48gHWvAqLRqw-NB5-2" value="" style="endArrow=classic;html=1;rounded=0;exitX=0;exitY=0;exitDx=100;exitDy=55;exitPerimeter=0;entryX=0;entryY=1;entryDx=0;entryDy=0;" edge="1" parent="1" source="iKQlAgD89Vu_cNlFwOyA-3" target="iKQlAgD89Vu_cNlFwOyA-2">
          <mxGeometry width="50" height="50" relative="1" as="geometry">
            <mxPoint x="400" y="180" as="sourcePoint" />
            <mxPoint x="450" y="130" as="targetPoint" />
          </mxGeometry>
        </mxCell>
        <mxCell id="fj5h48gHWvAqLRqw-NB5-3" value="student&amp;nbsp;&lt;div&gt;details&lt;/div&gt;" style="endArrow=classic;html=1;rounded=0;exitX=0;exitY=0;exitDx=100;exitDy=77.5;exitPerimeter=0;" edge="1" parent="1" source="iKQlAgD89Vu_cNlFwOyA-3" target="iKQlAgD89Vu_cNlFwOyA-11">
          <mxGeometry width="50" height="50" relative="1" as="geometry">
            <mxPoint x="400" y="290" as="sourcePoint" />
            <mxPoint x="450" y="240" as="targetPoint" />
          </mxGeometry>
        </mxCell>
        <mxCell id="fj5h48gHWvAqLRqw-NB5-4" value="" style="endArrow=classic;html=1;rounded=0;exitX=1;exitY=0.5;exitDx=0;exitDy=0;" edge="1" parent="1" source="iKQlAgD89Vu_cNlFwOyA-11" target="iKQlAgD89Vu_cNlFwOyA-14">
          <mxGeometry width="50" height="50" relative="1" as="geometry">
            <mxPoint x="400" y="290" as="sourcePoint" />
            <mxPoint x="450" y="240" as="targetPoint" />
          </mxGeometry>
        </mxCell>
        <mxCell id="fj5h48gHWvAqLRqw-NB5-5" value="8&lt;div&gt;generate reports&lt;/div&gt;" style="ellipse;whiteSpace=wrap;html=1;" vertex="1" parent="1">
          <mxGeometry x="570" y="360" width="120" height="80" as="geometry" />
        </mxCell>
        <mxCell id="fj5h48gHWvAqLRqw-NB5-6" value="6&lt;div&gt;generate deadline&lt;/div&gt;" style="ellipse;whiteSpace=wrap;html=1;" vertex="1" parent="1">
          <mxGeometry x="370" y="310" width="120" height="80" as="geometry" />
        </mxCell>
        <mxCell id="fj5h48gHWvAqLRqw-NB5-8" value="" style="endArrow=classic;html=1;rounded=0;entryX=0;entryY=0;entryDx=0;entryDy=45;entryPerimeter=0;" edge="1" parent="1" source="fj5h48gHWvAqLRqw-NB5-25" target="iKQlAgD89Vu_cNlFwOyA-7">
          <mxGeometry width="50" height="50" relative="1" as="geometry">
            <mxPoint x="460" y="220" as="sourcePoint" />
            <mxPoint x="540" y="190" as="targetPoint" />
          </mxGeometry>
        </mxCell>
        <mxCell id="fj5h48gHWvAqLRqw-NB5-14" value="Administrator" style="html=1;dashed=0;whiteSpace=wrap;shape=mxgraph.dfd.externalEntity" vertex="1" parent="1">
          <mxGeometry x="570" y="520" width="100" height="100" as="geometry" />
        </mxCell>
        <mxCell id="fj5h48gHWvAqLRqw-NB5-15" value="Id" style="autosize=1;part=1;resizable=0;strokeColor=inherit;fillColor=inherit;gradientColor=inherit;" vertex="1" parent="fj5h48gHWvAqLRqw-NB5-14">
          <mxGeometry width="20" height="20" relative="1" as="geometry">
            <mxPoint x="15" y="15" as="offset" />
          </mxGeometry>
        </mxCell>
        <mxCell id="fj5h48gHWvAqLRqw-NB5-18" value="Administrator" style="html=1;dashed=0;whiteSpace=wrap;shape=mxgraph.dfd.externalEntity" vertex="1" parent="1">
          <mxGeometry x="-30" y="15" width="100" height="70" as="geometry" />
        </mxCell>
        <mxCell id="fj5h48gHWvAqLRqw-NB5-19" value="Id" style="autosize=1;part=1;resizable=0;strokeColor=inherit;fillColor=inherit;gradientColor=inherit;" vertex="1" parent="fj5h48gHWvAqLRqw-NB5-18">
          <mxGeometry width="20" height="20" relative="1" as="geometry">
            <mxPoint x="15" y="15" as="offset" />
          </mxGeometry>
        </mxCell>
        <mxCell id="fj5h48gHWvAqLRqw-NB5-21" value="" style="endArrow=classic;html=1;rounded=0;entryX=1;entryY=0.5;entryDx=0;entryDy=0;exitX=0.07;exitY=0.53;exitDx=0;exitDy=0;exitPerimeter=0;" edge="1" parent="1" source="fj5h48gHWvAqLRqw-NB5-14" target="iKQlAgD89Vu_cNlFwOyA-15">
          <mxGeometry width="50" height="50" relative="1" as="geometry">
            <mxPoint x="560" y="570" as="sourcePoint" />
            <mxPoint x="380" y="670" as="targetPoint" />
          </mxGeometry>
        </mxCell>
        <mxCell id="fj5h48gHWvAqLRqw-NB5-22" value="" style="endArrow=classic;html=1;rounded=0;entryX=0.6;entryY=0;entryDx=0;entryDy=0;entryPerimeter=0;" edge="1" parent="1" source="fj5h48gHWvAqLRqw-NB5-5" target="fj5h48gHWvAqLRqw-NB5-14">
          <mxGeometry width="50" height="50" relative="1" as="geometry">
            <mxPoint x="570" y="480" as="sourcePoint" />
            <mxPoint x="630" y="510" as="targetPoint" />
          </mxGeometry>
        </mxCell>
        <mxCell id="fj5h48gHWvAqLRqw-NB5-24" value="" style="endArrow=classic;html=1;rounded=0;exitX=0;exitY=0.5;exitDx=0;exitDy=0;entryX=1;entryY=0.66;entryDx=0;entryDy=0;entryPerimeter=0;" edge="1" parent="1" source="fj5h48gHWvAqLRqw-NB5-25" target="iKQlAgD89Vu_cNlFwOyA-3">
          <mxGeometry width="50" height="50" relative="1" as="geometry">
            <mxPoint x="343" y="204" as="sourcePoint" />
            <mxPoint x="60" y="230" as="targetPoint" />
          </mxGeometry>
        </mxCell>
        <mxCell id="fj5h48gHWvAqLRqw-NB5-25" value="4&lt;div&gt;view submitted assignments&amp;nbsp;&lt;/div&gt;" style="ellipse;whiteSpace=wrap;html=1;" vertex="1" parent="1">
          <mxGeometry x="350" y="138" width="140" height="80" as="geometry" />
        </mxCell>
        <mxCell id="fj5h48gHWvAqLRqw-NB5-28" value="login details" style="text;html=1;align=center;verticalAlign=middle;resizable=0;points=[];autosize=1;strokeColor=none;fillColor=none;" vertex="1" parent="1">
          <mxGeometry x="55" y="108" width="90" height="30" as="geometry" />
        </mxCell>
        <mxCell id="fj5h48gHWvAqLRqw-NB5-31" value="" style="endArrow=classic;html=1;rounded=0;entryX=0;entryY=0;entryDx=100;entryDy=77.5;entryPerimeter=0;" edge="1" parent="1" source="iKQlAgD89Vu_cNlFwOyA-13" target="iKQlAgD89Vu_cNlFwOyA-3">
          <mxGeometry width="50" height="50" relative="1" as="geometry">
            <mxPoint x="400" y="300" as="sourcePoint" />
            <mxPoint x="80" y="240" as="targetPoint" />
          </mxGeometry>
        </mxCell>
        <mxCell id="fj5h48gHWvAqLRqw-NB5-32" value="Attendance status" style="text;strokeColor=none;align=center;fillColor=none;html=1;verticalAlign=middle;whiteSpace=wrap;rounded=0;" vertex="1" parent="1">
          <mxGeometry x="110" y="260" width="60" height="30" as="geometry" />
        </mxCell>
        <mxCell id="fj5h48gHWvAqLRqw-NB5-33" value="" style="endArrow=classic;html=1;rounded=0;entryX=0;entryY=0;entryDx=10;entryDy=100;entryPerimeter=0;exitX=0.792;exitY=0.038;exitDx=0;exitDy=0;exitPerimeter=0;" edge="1" parent="1" source="fj5h48gHWvAqLRqw-NB5-6" target="iKQlAgD89Vu_cNlFwOyA-7">
          <mxGeometry width="50" height="50" relative="1" as="geometry">
            <mxPoint x="400" y="300" as="sourcePoint" />
            <mxPoint x="450" y="250" as="targetPoint" />
          </mxGeometry>
        </mxCell>
        <mxCell id="fj5h48gHWvAqLRqw-NB5-34" value="" style="endArrow=classic;html=1;rounded=0;entryX=1;entryY=0.5;entryDx=0;entryDy=0;exitX=0.01;exitY=0.16;exitDx=0;exitDy=0;exitPerimeter=0;" edge="1" parent="1" source="iKQlAgD89Vu_cNlFwOyA-7" target="iKQlAgD89Vu_cNlFwOyA-1">
          <mxGeometry width="50" height="50" relative="1" as="geometry">
            <mxPoint x="540" y="160" as="sourcePoint" />
            <mxPoint x="370" y="-150" as="targetPoint" />
          </mxGeometry>
        </mxCell>
        <mxCell id="fj5h48gHWvAqLRqw-NB5-35" value="" style="endArrow=classic;html=1;rounded=0;exitX=0.988;exitY=0.65;exitDx=0;exitDy=0;exitPerimeter=0;" edge="1" parent="1" source="iKQlAgD89Vu_cNlFwOyA-2" target="fj5h48gHWvAqLRqw-NB5-6">
          <mxGeometry width="50" height="50" relative="1" as="geometry">
            <mxPoint x="400" y="440" as="sourcePoint" />
            <mxPoint x="450" y="390" as="targetPoint" />
          </mxGeometry>
        </mxCell>
        <mxCell id="fj5h48gHWvAqLRqw-NB5-36" value="" style="endArrow=classic;html=1;rounded=0;exitX=0.963;exitY=0.338;exitDx=0;exitDy=0;exitPerimeter=0;entryX=0;entryY=0;entryDx=0;entryDy=0;" edge="1" parent="1" source="iKQlAgD89Vu_cNlFwOyA-2" target="fj5h48gHWvAqLRqw-NB5-25">
          <mxGeometry width="50" height="50" relative="1" as="geometry">
            <mxPoint x="400" y="440" as="sourcePoint" />
            <mxPoint x="450" y="390" as="targetPoint" />
          </mxGeometry>
        </mxCell>
        <mxCell id="fj5h48gHWvAqLRqw-NB5-37" value="view attendance&amp;nbsp;&lt;div&gt;details&lt;/div&gt;" style="ellipse;whiteSpace=wrap;html=1;" vertex="1" parent="1">
          <mxGeometry x="460" y="430" width="110" height="70" as="geometry" />
        </mxCell>
        <mxCell id="fj5h48gHWvAqLRqw-NB5-38" value="" style="endArrow=classic;html=1;rounded=0;exitX=0.8;exitY=0.071;exitDx=0;exitDy=0;exitPerimeter=0;" edge="1" parent="1" source="fj5h48gHWvAqLRqw-NB5-37" target="fj5h48gHWvAqLRqw-NB5-5">
          <mxGeometry width="50" height="50" relative="1" as="geometry">
            <mxPoint x="560" y="430" as="sourcePoint" />
            <mxPoint x="450" y="460" as="targetPoint" />
          </mxGeometry>
        </mxCell>
        <mxCell id="fj5h48gHWvAqLRqw-NB5-39" value="" style="endArrow=classic;html=1;rounded=0;" edge="1" parent="1" source="fj5h48gHWvAqLRqw-NB5-37" target="iKQlAgD89Vu_cNlFwOyA-14">
          <mxGeometry width="50" height="50" relative="1" as="geometry">
            <mxPoint x="400" y="510" as="sourcePoint" />
            <mxPoint x="450" y="460" as="targetPoint" />
          </mxGeometry>
        </mxCell>
        <mxCell id="fj5h48gHWvAqLRqw-NB5-40" value="3&lt;div&gt;record attendance&lt;/div&gt;" style="ellipse;whiteSpace=wrap;html=1;" vertex="1" parent="1">
          <mxGeometry x="180" y="210" width="120" height="60" as="geometry" />
        </mxCell>
        <mxCell id="fj5h48gHWvAqLRqw-NB5-44" value="" style="endArrow=classic;html=1;rounded=0;exitX=0.025;exitY=0.317;exitDx=0;exitDy=0;exitPerimeter=0;" edge="1" parent="1" source="fj5h48gHWvAqLRqw-NB5-40">
          <mxGeometry width="50" height="50" relative="1" as="geometry">
            <mxPoint x="400" y="370" as="sourcePoint" />
            <mxPoint x="59" y="230" as="targetPoint" />
          </mxGeometry>
        </mxCell>
      </root>
    </mxGraphModel>
  </diagram>
  <diagram id="4ftwVbb-kE4qCF2IOVW_" name="Page-3">
    <mxGraphModel dx="1730" dy="1536" grid="1" gridSize="10" guides="1" tooltips="1" connect="1" arrows="1" fold="1" page="1" pageScale="1" pageWidth="850" pageHeight="1100" math="0" shadow="0">
      <root>
        <mxCell id="0" />
        <mxCell id="1" parent="0" />
        <mxCell id="pMjNsyXNta28byifmSHB-7" value="GENERATE REPORTS&amp;nbsp;" style="ellipse;whiteSpace=wrap;html=1;" vertex="1" parent="1">
          <mxGeometry x="20" y="-100" width="120" height="60" as="geometry" />
        </mxCell>
        <mxCell id="pMjNsyXNta28byifmSHB-10" value="student" style="shape=umlActor;verticalLabelPosition=bottom;verticalAlign=top;html=1;outlineConnect=0;" vertex="1" parent="1">
          <mxGeometry x="-210" y="-320" width="30" height="60" as="geometry" />
        </mxCell>
        <mxCell id="pMjNsyXNta28byifmSHB-11" value="Lectuerer" style="shape=umlActor;verticalLabelPosition=bottom;verticalAlign=top;html=1;outlineConnect=0;" vertex="1" parent="1">
          <mxGeometry x="-80" y="-110" width="30" height="60" as="geometry" />
        </mxCell>
        <mxCell id="pMjNsyXNta28byifmSHB-13" value="UNIVERSITY ADMIN" style="shape=umlActor;verticalLabelPosition=bottom;verticalAlign=top;html=1;outlineConnect=0;" vertex="1" parent="1">
          <mxGeometry x="760" y="-330" width="30" height="60" as="geometry" />
        </mxCell>
        <mxCell id="pMjNsyXNta28byifmSHB-22" value="HOD" style="shape=umlActor;verticalLabelPosition=bottom;verticalAlign=top;html=1;outlineConnect=0;" vertex="1" parent="1">
          <mxGeometry x="750" y="-200" width="30" height="60" as="geometry" />
        </mxCell>
        <mxCell id="pMjNsyXNta28byifmSHB-23" value="Lecturer" style="shape=umlActor;verticalLabelPosition=bottom;verticalAlign=top;html=1;outlineConnect=0;" vertex="1" parent="1">
          <mxGeometry x="250" y="-200" width="30" height="60" as="geometry" />
        </mxCell>
        <mxCell id="pMjNsyXNta28byifmSHB-24" value="GRADE STUDENT" style="ellipse;whiteSpace=wrap;html=1;" vertex="1" parent="1">
          <mxGeometry x="30" y="-20" width="120" height="50" as="geometry" />
        </mxCell>
        <mxCell id="pMjNsyXNta28byifmSHB-25" value="CHECK ACADEMIC PROGRESS" style="ellipse;whiteSpace=wrap;html=1;" vertex="1" parent="1">
          <mxGeometry x="25" y="-360" width="150" height="50" as="geometry" />
        </mxCell>
        <mxCell id="pMjNsyXNta28byifmSHB-27" value="VIEW RESULTS" style="ellipse;whiteSpace=wrap;html=1;" vertex="1" parent="1">
          <mxGeometry x="40" y="-290" width="120" height="40" as="geometry" />
        </mxCell>
        <mxCell id="pMjNsyXNta28byifmSHB-28" value="SUBMIT APPEALS" style="ellipse;whiteSpace=wrap;html=1;" vertex="1" parent="1">
          <mxGeometry x="30" y="-230" width="120" height="80" as="geometry" />
        </mxCell>
        <mxCell id="pMjNsyXNta28byifmSHB-32" value="UPDATE SCORES" style="ellipse;whiteSpace=wrap;html=1;" vertex="1" parent="1">
          <mxGeometry x="50" y="50" width="120" height="80" as="geometry" />
        </mxCell>
        <mxCell id="pMjNsyXNta28byifmSHB-33" value="" style="endArrow=classic;html=1;rounded=0;exitX=0.5;exitY=0.5;exitDx=0;exitDy=0;exitPerimeter=0;" edge="1" parent="1" source="pMjNsyXNta28byifmSHB-11" target="pMjNsyXNta28byifmSHB-7">
          <mxGeometry width="50" height="50" relative="1" as="geometry">
            <mxPoint x="200" y="20" as="sourcePoint" />
            <mxPoint x="250" y="-30" as="targetPoint" />
          </mxGeometry>
        </mxCell>
        <mxCell id="pMjNsyXNta28byifmSHB-34" value="" style="endArrow=classic;html=1;rounded=0;" edge="1" parent="1" target="pMjNsyXNta28byifmSHB-24">
          <mxGeometry width="50" height="50" relative="1" as="geometry">
            <mxPoint x="-60" y="-80" as="sourcePoint" />
            <mxPoint x="230" y="-30" as="targetPoint" />
          </mxGeometry>
        </mxCell>
        <mxCell id="pMjNsyXNta28byifmSHB-35" style="edgeStyle=orthogonalEdgeStyle;rounded=0;orthogonalLoop=1;jettySize=auto;html=1;exitX=0.5;exitY=1;exitDx=0;exitDy=0;" edge="1" parent="1" source="pMjNsyXNta28byifmSHB-32" target="pMjNsyXNta28byifmSHB-32">
          <mxGeometry relative="1" as="geometry" />
        </mxCell>
        <mxCell id="pMjNsyXNta28byifmSHB-36" style="edgeStyle=orthogonalEdgeStyle;rounded=0;orthogonalLoop=1;jettySize=auto;html=1;exitX=0.5;exitY=1;exitDx=0;exitDy=0;" edge="1" parent="1" source="pMjNsyXNta28byifmSHB-24" target="pMjNsyXNta28byifmSHB-24">
          <mxGeometry relative="1" as="geometry" />
        </mxCell>
        <mxCell id="pMjNsyXNta28byifmSHB-37" value="" style="endArrow=classic;html=1;rounded=0;" edge="1" parent="1" source="pMjNsyXNta28byifmSHB-11" target="pMjNsyXNta28byifmSHB-32">
          <mxGeometry width="50" height="50" relative="1" as="geometry">
            <mxPoint x="-40" y="90" as="sourcePoint" />
            <mxPoint x="250" y="-30" as="targetPoint" />
          </mxGeometry>
        </mxCell>
        <mxCell id="pMjNsyXNta28byifmSHB-38" style="edgeStyle=orthogonalEdgeStyle;rounded=0;orthogonalLoop=1;jettySize=auto;html=1;exitX=0.5;exitY=1;exitDx=0;exitDy=0;" edge="1" parent="1" source="pMjNsyXNta28byifmSHB-32" target="pMjNsyXNta28byifmSHB-32">
          <mxGeometry relative="1" as="geometry" />
        </mxCell>
        <mxCell id="pMjNsyXNta28byifmSHB-39" style="edgeStyle=orthogonalEdgeStyle;rounded=0;orthogonalLoop=1;jettySize=auto;html=1;exitX=0.5;exitY=1;exitDx=0;exitDy=0;" edge="1" parent="1" source="pMjNsyXNta28byifmSHB-24" target="pMjNsyXNta28byifmSHB-24">
          <mxGeometry relative="1" as="geometry" />
        </mxCell>
        <mxCell id="pMjNsyXNta28byifmSHB-40" value="" style="endArrow=classic;html=1;rounded=0;entryX=0.027;entryY=0.7;entryDx=0;entryDy=0;entryPerimeter=0;exitX=0.5;exitY=0.5;exitDx=0;exitDy=0;exitPerimeter=0;" edge="1" parent="1" source="pMjNsyXNta28byifmSHB-10" target="pMjNsyXNta28byifmSHB-25">
          <mxGeometry width="50" height="50" relative="1" as="geometry">
            <mxPoint x="200" y="-320" as="sourcePoint" />
            <mxPoint x="20" y="-310" as="targetPoint" />
          </mxGeometry>
        </mxCell>
        <mxCell id="pMjNsyXNta28byifmSHB-43" value="" style="endArrow=classic;html=1;rounded=0;exitX=0.667;exitY=0.7;exitDx=0;exitDy=0;exitPerimeter=0;" edge="1" parent="1" source="pMjNsyXNta28byifmSHB-10" target="pMjNsyXNta28byifmSHB-27">
          <mxGeometry width="50" height="50" relative="1" as="geometry">
            <mxPoint x="-150" y="-200" as="sourcePoint" />
            <mxPoint x="40" y="-240" as="targetPoint" />
          </mxGeometry>
        </mxCell>
      </root>
    </mxGraphModel>
  </diagram>
</mxfile>
